<svg width="695" height="348" viewBox="0 0 695 348" fill="none" xmlns="http://www.w3.org/2000/svg">
<path d="M232.692 84.3618L234.228 81.5226C219.987 73.9369 205.336 68.9595 190.604 66.8548C184.501 65.9901 178.352 65.5515 172.327 65.5515C123.72 65.5515 80.234 94.7902 64.1149 138.306L79.7601 144.099C93.4645 107.096 130.666 82.2359 172.329 82.2359C177.574 82.2359 182.933 82.6182 188.254 83.3737C216.499 87.4088 243.64 102.816 268.925 129.167L278.135 120.327C265.693 107.031 250.509 93.9994 232.692 84.3618Z" fill="#62AEB2"/>
<path d="M118.636 279.189C76.7378 259.711 49.6654 218.521 49.6654 174.25C49.6654 151.853 56.2296 130.179 68.6448 111.57C73.3685 104.482 78.9499 97.8389 85.2288 91.8259L92.9203 99.8608C87.2261 105.31 82.1713 111.325 77.8967 117.738C66.7039 134.515 60.786 154.055 60.786 174.248C60.786 214.824 84.748 251.171 123.325 269.101L118.636 279.189Z" fill="#62AEB2"/>
<path d="M322.735 187.908L317.913 176.655C317.473 175.787 316.865 174.623 316.129 173.251C307.683 189.243 263.254 267.331 190.202 277.763C184.236 278.615 178.084 280.567 172.267 280.567C155.253 280.559 138.933 276.979 123.765 269.921L118.196 280.128C135.122 288.003 153.312 291.997 172.276 292.004C178.706 292.004 185.304 291.527 191.886 290.586C262.371 280.519 306.859 216.055 323.244 187.688L322.735 187.908Z" fill="#62AEB2"/>
<path d="M338.189 242.261C323.898 261.68 308.127 278.494 291.209 292.23L295.291 297.256C312.021 283.672 327.653 267.191 341.861 248.21C370.937 287.883 419.316 334.944 489.444 344.955L491.105 333.325C419.429 323.09 371.422 272.41 342.877 229.279C341.533 227.242 338.189 242.261 338.189 242.261Z" fill="#E47128"/>
<path d="M525.506 290.607C516.249 291.213 506.828 290.863 497.377 289.512C475.84 286.433 454.969 277.835 435.34 263.954L429.237 272.581C450.247 287.439 472.668 296.654 495.88 299.972C502.865 300.971 509.912 301.476 516.823 301.476C519.731 301.476 522.623 301.365 525.506 301.189V290.607Z" fill="#E5AD24"/>
<path d="M328.317 185.516L322.733 187.908L317.911 176.656C314.299 169.544 300.763 144.497 278.135 120.325L268.925 129.165C288.771 149.846 300.693 170.345 304.899 178.198L321.828 207.742L336.3 199.445L328.317 185.516Z" fill="#E47128"/>
<path d="M516.825 281.206C510.828 281.206 504.746 280.769 498.749 279.906C423.354 269.139 379.245 192.59 371.168 177.351L382.833 171.169C387.462 179.9 430.088 256.765 500.623 266.837C506.005 267.611 511.451 268.005 516.823 268.005V281.206H516.825Z" fill="#62AEB2"/>
<path d="M621.877 144.837C616.852 128.52 607.479 113.465 594.766 101.296C578.106 85.3605 556.95 75.1733 533.583 71.8375L535.72 56.8809C562.228 60.6623 586.257 72.2479 605.212 90.3801C619.781 104.326 630.537 121.618 636.318 140.389L621.877 144.837Z" fill="#00878F"/>
<path d="M420.05 96.7734L412.929 88.6646C438.573 66.1433 466.475 52.5974 495.866 48.4056C502.805 47.414 509.839 46.9103 516.766 46.9103C552.555 46.9103 586.085 60.1321 611.177 84.1416L603.717 91.9405C580.642 69.8631 549.764 57.7033 516.768 57.7033C510.348 57.7033 503.83 58.1718 497.393 59.0912C470.112 62.9818 444.091 75.6611 420.05 96.7734Z" fill="#00878F"/>
<path d="M365.227 201.88L327.795 184.074L336.699 165.357C342.481 153.206 364.334 110.927 402.816 77.1441L418.393 63.4696L445.74 94.6228L430.163 108.297C396.798 137.587 377.634 175.803 374.132 183.167L365.227 201.88Z" fill="#E5AD24"/>
<path d="M48.3779 224.229C41.4649 208.454 37.96 191.637 37.96 174.25C37.96 139.808 51.8758 107.533 77.1446 83.3651C85.9721 74.9216 95.9338 67.7198 106.755 61.9604L112.84 73.3911C103.065 78.5956 94.0668 85.0982 86.0936 92.7262C63.405 114.425 50.9088 143.378 50.9088 174.25C50.9088 189.839 54.0474 204.903 60.2365 219.032L48.3779 224.229Z" fill="#00878F"/>
<path d="M92.9837 99.9313L85.1654 91.7537C108.303 69.6287 139.259 57.4443 172.329 57.4443C178.775 57.4443 185.313 57.911 191.759 58.8304C207.547 61.0866 223.13 66.3299 238.075 74.4106L232.694 84.3617C218.928 76.9186 204.618 72.098 190.158 70.0303C184.242 69.1867 178.241 68.7569 172.329 68.7569C142.186 68.7587 114.008 79.83 92.9837 99.9313Z" fill="#E5AD24"/>
<path d="M15.5092 174.25H8.6015C8.6015 131.722 25.7368 91.9124 56.8513 62.1541L61.6261 67.1455C31.8872 95.5881 15.5092 133.624 15.5092 174.25Z" fill="#E5AD24"/>
<path d="M288.856 56.171C260.945 33.8593 230.352 20.1989 197.925 15.5686C189.432 14.3568 180.82 13.7439 172.329 13.7439C138.736 13.7439 106.486 23.1895 79.0645 41.0628L74.0361 33.3467C102.956 14.4959 136.947 4.53247 172.33 4.53247C181.255 4.53247 190.306 5.1771 199.228 6.45049C233.307 11.3169 265.396 25.6254 294.608 48.9762L288.856 56.171Z" fill="#00878F"/>
<path d="M353.64 115.962L335.467 103.139C364.539 61.9321 414.767 10.5913 488.954 -0.000976562L492.098 22.0184C425.764 31.4904 380.191 78.333 353.64 115.962Z" fill="#00878F"/>
<path d="M374.448 118.616L361.589 108.894C387.032 75.2366 430.387 33.2534 492.438 24.3995C500.508 23.2459 508.695 22.6611 516.766 22.6611C537.68 22.6611 557.938 26.476 576.979 34.0002L571.056 48.992C553.91 42.2164 535.645 38.782 516.768 38.782C509.457 38.782 502.039 39.3139 494.717 40.3601C438.1 48.4372 398.064 87.3734 374.448 118.616Z" fill="#62AEB2"/>
<path d="M348.524 144.863L330.532 137.54L335.881 124.395L336.343 123.668C359.57 86.9033 410.506 23.519 490.677 12.0813C499.334 10.8449 508.112 10.2179 516.767 10.2179V29.6429C509.028 29.6429 501.172 30.2047 493.423 31.3108C425.008 41.0717 379.481 92.0004 353.221 133.32L348.524 144.863Z" fill="#62AEB2"/>
<path d="M348.217 124.954L338.909 113.534C323.44 91.6112 306.116 72.9154 287.418 57.9676L296.045 47.1746C315.701 62.8886 333.875 82.4668 350.058 105.367L358.919 116.213L348.217 124.954Z" fill="#62AEB2"/>
<path d="M634.112 60.1814C602.816 30.2346 561.143 13.7439 516.768 13.7439C508.284 13.7439 499.673 14.3586 491.177 15.5686L489.877 6.44876C498.802 5.17537 507.851 4.53076 516.77 4.53076C563.53 4.53076 607.464 21.9303 640.481 53.5238L634.112 60.1814Z" fill="#E47128"/>
<path d="M195.679 317.176L192.322 293.67C286.307 280.253 333.137 170.782 333.599 169.677C335.681 164.674 385.917 46.6513 493.425 31.309L496.778 54.8148C402.506 68.2673 355.976 177.702 355.516 178.806C353.427 183.826 303.159 301.83 195.679 317.176Z" fill="#00878F"/>
<path d="M96.9271 293.413L107.236 275.674C132.531 290.37 161.846 295.853 192.014 291.536L194.92 311.836C214.572 309.03 233.774 302.302 251.987 291.84L234.787 261.892C220.386 270.163 205.328 275.464 190.028 277.648C184.096 278.495 178.123 278.925 172.267 278.925C142.359 278.923 114.401 267.929 93.542 247.969C83.4394 238.3 75.5595 227.105 70.126 214.701L40.4786 227.686C47.5572 243.839 57.8817 258.653 71.1581 271.359L69.6646 272.919C77.9689 280.866 87.1239 287.71 96.9271 293.413Z" fill="#00878F"/>
<path d="M172.276 322.493C131.087 322.492 92.4324 307.202 63.4208 279.446L69.9393 272.634C97.1878 298.706 133.528 313.064 172.265 313.065C179.733 313.065 187.331 312.519 194.857 311.443C272.365 300.374 319.214 234.784 340.306 196.508L345.655 183.849L354.341 187.519L348.686 200.841C326.804 240.625 277.895 309.11 196.192 320.776C188.224 321.914 180.179 322.493 172.276 322.493Z" fill="#00878F"/>
<path d="M172.276 348C124.477 347.993 79.561 330.19 45.7906 297.869L57.7302 285.393C88.2723 314.624 128.949 330.724 172.267 330.731C180.578 330.731 189.017 330.125 197.353 328.931C229.661 324.315 260.092 310.558 287.806 288.042L298.694 301.443C268.516 325.96 235.244 340.96 199.799 346.024C190.656 347.334 181.396 348 172.276 348Z" fill="#00878F"/>
<path d="M198.121 334.269L195.984 319.313C265.612 309.37 311.68 257.564 338.088 215.8C338.897 214.398 346.007 202.06 348.73 196.882L362.105 203.913C359.089 209.646 351.423 222.924 351.097 223.486L350.944 223.743C322.846 268.22 273.527 323.503 198.121 334.269Z" fill="#E5AD24"/>
<path d="M97.4768 292.471C54.1268 267.299 28.2468 223.103 28.2468 174.249C28.2468 167.141 28.8051 160.013 29.9094 153.067L40.5668 154.759C39.5541 161.149 39.038 167.706 39.038 174.249C39.038 219.213 62.9102 259.921 102.894 283.138L97.4768 292.471Z" fill="#62AEB2"/>
<path d="M45.4753 155.536L25.0042 152.288C30.929 114.958 51.564 81.9717 83.11 59.4082C115.149 36.4888 155.043 27.0361 195.472 32.8043C204.575 34.1059 213.644 36.2299 222.431 39.1166L215.96 58.8076C208.325 56.2995 200.445 54.4537 192.541 53.323C120.81 43.1129 56.1961 87.9882 45.4753 155.536Z" fill="#E47128"/>
<path d="M42.807 300.988C23.9069 282.905 9.59314 261.666 0.261963 237.859L24.3754 228.407C32.3258 248.688 44.5507 266.811 60.7121 282.273L42.807 300.988Z" fill="#E5AD24"/>
<path d="M172.276 336.124C127.55 336.119 85.5494 319.487 53.9946 289.29C25.2737 261.806 7.85659 225.208 4.94874 186.244L4.93289 185.964L4.50665 174.532L19.6042 173.968L20.0252 185.258C22.6847 220.444 38.455 253.507 64.4407 278.376C93.1704 305.867 131.464 321.011 172.267 321.016C180.11 321.016 188.087 320.443 195.982 319.313L198.122 334.269C189.52 335.499 180.823 336.124 172.276 336.124Z" fill="#62AEB2"/>
<path d="M241.643 283.303L236.949 275.124L241.037 272.778C294.358 242.169 324.144 183.655 329.574 172.236L331.598 167.979L340.112 172.029L338.088 176.286C332.449 188.148 301.487 248.952 245.733 280.956L241.643 283.303Z" fill="#E5AD24"/>
<path d="M359.44 168.057C358.968 166.924 355.606 158.993 349.21 147.399L351.611 146.076C329.372 105.719 279.669 36.2475 196.667 24.3995C188.594 23.2459 180.404 22.6611 172.327 22.6611V38.7802C179.643 38.7802 187.065 39.3121 194.388 40.3583C203.362 41.6405 211.902 43.6959 220.052 46.3449L214.155 64.2728C290.77 89.4729 329.298 179.554 329.669 180.439C331.793 185.545 382.946 305.698 492.82 321.38L497.375 289.464C405.83 276.398 359.887 169.121 359.44 168.057Z" fill="#00878F"/>
<path d="M661.889 174.25H648.937C648.937 138.584 633.2 104.477 605.761 80.6736C576.285 55.1018 536.288 43.7346 496.014 49.4728L494.187 36.6526C538.171 30.3754 581.935 42.8575 614.249 70.8898C644.525 97.1537 661.889 134.827 661.889 174.25Z" fill="#E5AD24"/>
<path d="M190.959 119.927H155.933V228.595H190.959V119.927Z" fill="#E5AD24"/>
<path d="M227.775 156.75H119.114V191.781H227.775V156.75Z" fill="#00878F"/>
<path d="M694.013 190.08L680.171 188.796C680.613 184.016 680.839 179.123 680.839 174.248C680.839 131.611 663.668 91.7045 632.49 61.874L642.102 51.8295C676.045 84.3054 694.74 127.782 694.74 174.248C694.739 179.547 694.496 184.875 694.013 190.08Z" fill="#62AEB2"/>
<path d="M646.387 198.169L637.35 196.373C638.801 189.067 639.537 181.559 639.537 174.059C639.537 142.677 626.838 113.243 603.782 91.1796L610.149 84.5238C635.041 108.341 648.749 140.139 648.749 174.059C648.75 182.161 647.954 190.272 646.387 198.169Z" fill="#00878F"/>
<path d="M630.562 200.387L609.647 195.055C611.369 188.303 612.241 181.302 612.243 174.248C612.243 124.864 569.414 84.6859 516.768 84.6859C511.643 84.6859 506.401 85.061 501.19 85.799C499.811 85.9963 498.435 86.2235 497.065 86.4753L493.171 65.2433C494.823 64.9404 496.477 64.6691 498.15 64.4296C504.371 63.5472 510.632 63.0999 516.766 63.0999C581.313 63.0999 633.827 112.963 633.827 174.248C633.825 183.102 632.726 191.894 630.562 200.387Z" fill="#E47128"/>
<path d="M457.623 89.5558L455.135 85.0663C405.58 112.539 376.572 166.313 371.258 176.816L366.011 187.496L360.461 184.768L358.174 189.849L377.864 198.691L386.692 179.031C391.884 169.41 432.201 98.4273 497.076 86.4736L495.124 75.8778C482.387 78.2309 469.795 82.8137 457.623 89.5558Z" fill="#00878F"/>
<path d="M516.825 327.49C508.689 327.49 500.403 326.895 492.195 325.722C455.552 320.489 421.554 303.463 391.143 275.119L404.387 260.909C431.838 286.495 462.306 301.832 494.943 306.494C503.663 307.737 512.423 308.213 521.03 308.01L521.485 327.432C519.93 327.469 518.38 327.49 516.825 327.49Z" fill="#62AEB2"/>
</svg>
