<svg width="2" height="880" viewBox="0 0 2 880" fill="none" xmlns="http://www.w3.org/2000/svg">
<path opacity="0.8" d="M0 4.37114e-08L1.74846e-07 4L2 4L2 -4.37114e-08L0 4.37114e-08ZM5.24537e-07 12L8.74228e-07 20L2 20L2 12L5.24537e-07 12ZM1.22392e-06 28L1.57361e-06 36L2 36L2 28L1.22392e-06 28ZM1.9233e-06 44L2.27299e-06 52L2 52L2 44L1.9233e-06 44ZM2.62268e-06 60L2.97237e-06 68L2 68L2 60L2.62268e-06 60ZM3.32207e-06 76L3.67176e-06 84L2 84L2 76L3.32207e-06 76ZM4.02145e-06 92L4.37114e-06 100L2 100L2 92L4.02145e-06 92ZM4.72083e-06 108L5.07052e-06 116L2.00001 116L2 108L4.72083e-06 108ZM5.42021e-06 124L5.7699e-06 132L2.00001 132L2.00001 124L5.42021e-06 124ZM6.11959e-06 140L6.46929e-06 148L2.00001 148L2.00001 140L6.11959e-06 140ZM6.81898e-06 156L7.16867e-06 164L2.00001 164L2.00001 156L6.81898e-06 156ZM7.51836e-06 172L7.86805e-06 180L2.00001 180L2.00001 172L7.51836e-06 172ZM8.21774e-06 188L8.56743e-06 196L2.00001 196L2.00001 188L8.21774e-06 188ZM8.91712e-06 204L9.26682e-06 212L2.00001 212L2.00001 204L8.91712e-06 204ZM9.61651e-06 220L9.9662e-06 228L2.00001 228L2.00001 220L9.61651e-06 220ZM1.03159e-05 236L1.06656e-05 244L2.00001 244L2.00001 236L1.03159e-05 236ZM1.10153e-05 252L1.1365e-05 260L2.00001 260L2.00001 252L1.10153e-05 252ZM1.17147e-05 268L1.20643e-05 276L2.00001 276L2.00001 268L1.17147e-05 268ZM1.2414e-05 284L1.27637e-05 292L2.00001 292L2.00001 284L1.2414e-05 284ZM1.31134e-05 300L1.34631e-05 308L2.00001 308L2.00001 300L1.31134e-05 300ZM1.38128e-05 316L1.41625e-05 324L2.00001 324L2.00001 316L1.38128e-05 316ZM1.45122e-05 332L1.48619e-05 340L2.00001 340L2.00001 332L1.45122e-05 332ZM1.52116e-05 348L1.55613e-05 356L2.00002 356L2.00002 348L1.52116e-05 348ZM1.59109e-05 364L1.62606e-05 372L2.00002 372L2.00002 364L1.59109e-05 364ZM1.66103e-05 380L1.696e-05 388L2.00002 388L2.00002 380L1.66103e-05 380ZM1.73097e-05 396L1.76594e-05 404L2.00002 404L2.00002 396L1.73097e-05 396ZM1.80091e-05 412L1.83588e-05 420L2.00002 420L2.00002 412L1.80091e-05 412ZM1.87085e-05 428L1.90582e-05 436L2.00002 436L2.00002 428L1.87085e-05 428ZM1.94079e-05 444L1.97575e-05 452L2.00002 452L2.00002 444L1.94079e-05 444ZM2.01072e-05 460L2.04569e-05 468L2.00002 468L2.00002 460L2.01072e-05 460ZM2.08066e-05 476L2.11563e-05 484L2.00002 484L2.00002 476L2.08066e-05 476ZM2.1506e-05 492L2.18557e-05 500L2.00002 500L2.00002 492L2.1506e-05 492ZM2.22054e-05 508L2.25551e-05 516L2.00002 516L2.00002 508L2.22054e-05 508ZM2.29048e-05 524L2.32545e-05 532L2.00002 532L2.00002 524L2.29048e-05 524ZM2.36042e-05 540L2.39538e-05 548L2.00002 548L2.00002 540L2.36042e-05 540ZM2.43035e-05 556L2.46532e-05 564L2.00002 564L2.00002 556L2.43035e-05 556ZM2.50029e-05 572L2.53526e-05 580L2.00003 580L2.00003 572L2.50029e-05 572ZM2.57023e-05 588L2.6052e-05 596L2.00003 596L2.00003 588L2.57023e-05 588ZM2.64017e-05 604L2.67514e-05 612L2.00003 612L2.00003 604L2.64017e-05 604ZM2.71011e-05 620L2.74508e-05 628L2.00003 628L2.00003 620L2.71011e-05 620ZM2.78004e-05 636L2.81501e-05 644L2.00003 644L2.00003 636L2.78004e-05 636ZM2.84998e-05 652L2.88495e-05 660L2.00003 660L2.00003 652L2.84998e-05 652ZM2.91992e-05 668L2.95489e-05 676L2.00003 676L2.00003 668L2.91992e-05 668ZM2.98986e-05 684L3.02483e-05 692L2.00003 692L2.00003 684L2.98986e-05 684ZM3.0598e-05 700L3.09477e-05 708L2.00003 708L2.00003 700L3.0598e-05 700ZM3.12974e-05 716L3.1647e-05 724L2.00003 724L2.00003 716L3.12974e-05 716ZM3.19967e-05 732L3.23464e-05 740L2.00003 740L2.00003 732L3.19967e-05 732ZM3.26961e-05 748L3.30458e-05 756L2.00003 756L2.00003 748L3.26961e-05 748ZM3.33955e-05 764L3.37452e-05 772L2.00003 772L2.00003 764L3.33955e-05 764ZM3.40949e-05 780L3.44446e-05 788L2.00003 788L2.00003 780L3.40949e-05 780ZM3.47943e-05 796L3.5144e-05 804L2.00004 804L2.00003 796L3.47943e-05 796ZM3.54937e-05 812L3.58433e-05 820L2.00004 820L2.00004 812L3.54937e-05 812ZM3.6193e-05 828L3.65427e-05 836L2.00004 836L2.00004 828L3.6193e-05 828ZM3.68924e-05 844L3.72421e-05 852L2.00004 852L2.00004 844L3.68924e-05 844ZM3.75918e-05 860L3.79415e-05 868L2.00004 868L2.00004 860L3.75918e-05 860ZM3.82912e-05 876L3.8466e-05 880L2.00004 880L2.00004 876L3.82912e-05 876Z" fill="#40394A"/>
</svg>
