<svg width="1169" height="355" viewBox="0 0 1169 355" fill="none" xmlns="http://www.w3.org/2000/svg">
<g filter="url(#filter0_d_36_2389)">
<path d="M4.84 89.872C5.864 88.6773 6.58933 87.2267 7.016 85.52C7.528 83.8133 7.784 82.32 7.784 81.04V18.064C7.784 17.04 7.48533 15.8453 6.888 14.48C6.376 13.0293 5.69333 11.792 4.84 10.768H24.808C23.8693 11.7067 23.1013 12.816 22.504 14.096C21.992 15.376 21.736 16.4853 21.736 17.424C21.736 17.68 21.736 17.936 21.736 18.192L21.864 19.472L22.76 18.576C25.1493 16.1013 27.7947 14.1813 30.696 12.816C33.6827 11.3653 36.7973 10.384 40.04 9.87199C37.5653 10.384 35.3893 11.3227 33.512 12.688C31.6347 14.0533 30.056 15.7173 28.776 17.68C27.496 19.5573 26.5147 21.6907 25.832 24.08C25.2347 26.384 24.936 28.816 24.936 31.376C24.936 34.5333 25.448 38.032 26.472 41.872C27.5813 45.6267 29.16 49.168 31.208 52.496C33.256 55.7387 35.7733 58.4693 38.76 60.688C41.7467 62.8213 45.16 63.888 49 63.888C52.2427 63.888 55.016 63.248 57.32 61.968C59.7093 60.6027 61.672 58.8533 63.208 56.72C64.744 54.5013 65.8533 52.0267 66.536 49.296C67.304 46.5653 67.688 43.792 67.688 40.976C67.688 37.8187 67.2187 34.448 66.28 30.864C65.3413 27.28 63.9333 23.952 62.056 20.88C60.264 17.7227 57.96 15.0773 55.144 12.944C52.4133 10.8107 49.2133 9.65866 45.544 9.488H45.928C50.024 9.488 53.992 10.128 57.832 11.408C61.7573 12.6027 65.1707 14.3947 68.072 16.784C71.0587 19.1733 73.448 22.1173 75.24 25.616C77.032 29.0293 77.928 32.9547 77.928 37.392C77.928 41.8293 77.032 45.7547 75.24 49.168C73.448 52.496 71.0587 55.2693 68.072 57.488C65.0853 59.7067 61.672 61.3707 57.832 62.48C53.992 63.5893 50.024 64.144 45.928 64.144C41.576 64.144 37.352 63.504 33.256 62.224C29.2453 60.944 25.704 58.8107 22.632 55.824L21.608 54.8L21.352 80.656C21.352 82.192 21.5653 83.8133 21.992 85.52C22.504 87.2267 23.3573 88.6773 24.552 89.872H4.84ZM83.215 89.872C84.3243 88.6773 85.0923 87.2267 85.519 85.52C85.9457 83.8133 86.159 82.32 86.159 81.04V18.064C86.159 17.04 85.903 15.8453 85.391 14.48C84.879 13.0293 84.1963 11.792 83.343 10.768H103.183C102.5 11.6213 101.86 12.6027 101.263 13.712L100.495 15.632L102.287 14.48C106.127 11.92 110.436 10.384 115.215 9.87199C114.191 9.95733 113.167 10.2133 112.143 10.64C106.852 12.6027 103.183 16.144 101.135 21.264C101.135 21.3493 100.964 21.8187 100.623 22.672C100.538 22.8427 100.495 23.0133 100.495 23.184C100.495 23.2693 100.452 23.3973 100.367 23.568V23.824C100.282 23.9093 100.239 23.952 100.239 23.952V24.336C100.154 26.7253 100.111 29.1147 100.111 31.504C100.111 33.808 100.111 36.1547 100.111 38.544C100.111 38.8853 100.196 39.312 100.367 39.824C100.452 40.1653 100.538 40.464 100.623 40.72L101.135 42.768C101.22 43.024 101.306 43.28 101.391 43.536C101.562 44.1333 101.732 44.56 101.903 44.816C102.756 47.0347 103.823 49.296 105.103 51.6C106.468 53.8187 108.047 55.8667 109.839 57.744C111.716 59.536 113.807 61.0293 116.111 62.224C118.415 63.3333 120.89 63.888 123.535 63.888C126.778 63.888 129.551 63.248 131.855 61.968C134.244 60.6027 136.207 58.8533 137.743 56.72C139.279 54.5013 140.388 52.0267 141.071 49.296C141.839 46.5653 142.223 43.792 142.223 40.976C142.223 37.8187 141.754 34.448 140.815 30.864C139.876 27.28 138.468 23.952 136.591 20.88C134.799 17.808 132.495 15.2053 129.679 13.072C126.948 10.9387 123.748 9.744 120.079 9.488H120.463C124.644 9.488 128.655 10.128 132.495 11.408C136.335 12.6027 139.706 14.3947 142.607 16.784C145.594 19.1733 147.983 22.1173 149.775 25.616C151.567 29.0293 152.463 32.9547 152.463 37.392C152.463 41.8293 151.567 45.7547 149.775 49.168C147.983 52.496 145.594 55.2693 142.607 57.488C139.62 59.7067 136.207 61.3707 132.367 62.48C128.527 63.5893 124.559 64.144 120.463 64.144C117.818 64.144 115.13 63.888 112.399 63.376L109.455 62.736L111.887 64.528C115.983 67.344 120.079 70.032 124.175 72.592C128.356 75.152 132.538 77.7973 136.719 80.528C137.914 81.296 139.151 82.1067 140.431 82.96C141.711 83.728 142.948 84.5387 144.143 85.392C145.167 86.0747 146.148 86.8 147.087 87.568C148.026 88.336 148.964 89.104 149.903 89.872H128.911C129.167 89.4453 129.338 88.976 129.423 88.464C129.508 87.8667 129.551 87.3547 129.551 86.928C129.551 85.2213 128.996 83.6853 127.887 82.32C127.119 81.4667 126.308 80.656 125.455 79.888C125.028 79.4613 124.602 79.0773 124.175 78.736C123.834 78.3947 123.45 78.0533 123.023 77.712C120.719 75.5787 118.415 73.488 116.111 71.44C113.807 69.392 111.503 67.344 109.199 65.296C108.772 64.8693 108.346 64.4427 107.919 64.016C107.663 63.76 107.407 63.5467 107.151 63.376L104.207 60.816C103.951 60.56 103.695 60.3467 103.439 60.176C103.012 59.92 102.586 59.7067 102.159 59.536C102.074 59.3653 101.946 59.28 101.775 59.28L101.391 59.152C101.306 59.0667 101.178 58.9813 101.007 58.896L99.983 58.384L99.855 80.656C99.855 82.192 100.068 83.8133 100.495 85.52C101.007 87.2267 101.86 88.6773 103.055 89.872H83.215ZM163.079 72.08C161.116 68.8373 159.58 65.3813 158.471 61.712C157.362 58.0427 156.807 54.288 156.807 50.448C156.807 44.048 158.172 38.3307 160.903 33.296C163.719 28.2613 167.346 23.9947 171.783 20.496C176.306 16.912 181.426 14.1813 187.143 12.304C192.86 10.4267 198.663 9.488 204.551 9.488C208.988 9.488 213.298 9.95733 217.479 10.896C221.746 11.8347 225.714 13.2853 229.383 15.248C233.138 17.1253 236.508 19.5573 239.495 22.544C242.567 25.5307 245.127 29.072 247.175 33.168C248.626 35.984 249.735 38.9707 250.503 42.128C251.271 45.2853 251.655 48.4853 251.655 51.728C251.655 58.384 250.332 64.272 247.687 69.392C245.042 74.4267 241.543 78.6933 237.191 82.192C232.839 85.6053 227.804 88.208 222.087 90C216.37 91.7067 210.439 92.56 204.295 92.56C200.37 92.56 196.402 92.1333 192.391 91.28C188.38 90.512 184.54 89.3173 180.871 87.696C177.287 85.9893 173.959 83.856 170.887 81.296C167.815 78.736 165.212 75.664 163.079 72.08ZM207.495 91.792C209.97 91.792 212.274 91.4507 214.407 90.768C216.626 90.1707 218.759 89.2747 220.807 88.08C226.61 84.9227 230.791 80.7413 233.351 75.536C235.996 70.2453 237.319 64.4 237.319 58C237.319 53.2213 236.466 48.0587 234.759 42.512C233.138 36.9653 230.748 31.8027 227.591 27.024C224.519 22.2453 220.722 18.2773 216.199 15.12C211.762 11.9627 206.77 10.384 201.223 10.384C198.919 10.384 196.658 10.7253 194.439 11.408C192.22 12.0053 190.087 12.816 188.039 13.84C182.236 16.8267 178.012 21.0507 175.367 26.512C172.722 31.9733 171.399 37.8613 171.399 44.176C171.399 49.04 172.21 54.2453 173.831 59.792C175.538 65.3387 177.927 70.5013 180.999 75.28C184.156 79.9733 187.954 83.8987 192.391 87.056C196.828 90.2133 201.863 91.792 207.495 91.792ZM268.348 67.984C266.897 70.1173 266.172 72.3787 266.172 74.768C266.172 76.6453 266.556 78.48 267.324 80.272C268.092 82.064 269.116 83.6853 270.396 85.136C271.676 86.5013 273.169 87.6107 274.876 88.464C276.668 89.3173 278.545 89.744 280.508 89.744C283.495 89.744 285.969 88.976 287.932 87.44C289.895 85.8187 291.431 83.8133 292.54 81.424C293.649 79.0347 294.417 76.5173 294.844 73.872C295.271 71.1413 295.484 68.6667 295.484 66.448V18.064C295.484 17.1253 295.185 15.9733 294.588 14.608C294.076 13.1573 293.393 11.92 292.54 10.896H312.38C311.527 11.8347 310.801 12.8587 310.204 13.968C309.692 15.0773 309.436 16.1013 309.436 17.04C309.436 17.1253 309.436 17.2533 309.436 17.424C309.436 25.5307 309.436 33.5947 309.436 41.616C309.521 49.552 309.564 57.5307 309.564 65.552C309.564 69.5627 308.881 73.104 307.516 76.176C306.151 79.248 304.273 81.808 301.884 83.856C299.58 85.904 296.807 87.4827 293.564 88.592C290.321 89.616 286.78 90.128 282.94 90.128C280.039 90.128 276.881 89.744 273.468 88.976C270.14 88.1227 267.025 86.8853 264.124 85.264C261.223 83.5573 258.791 81.4667 256.828 78.992C254.951 76.5173 254.012 73.5733 254.012 70.16V69.136L268.348 67.984ZM351.596 86.544C358.252 86.544 364.951 86.3733 371.692 86.032C378.433 85.6053 385.089 84.5387 391.66 82.832V89.872H319.468C320.492 88.6773 321.217 87.2267 321.644 85.52C322.156 83.8133 322.412 82.32 322.412 81.04V17.808C322.412 14.992 321.473 12.7733 319.596 11.152H391.66V18.064C385.089 16.3573 378.433 15.3333 371.692 14.992C364.951 14.6507 358.252 14.48 351.596 14.48H337.644V39.696C337.132 39.696 336.663 39.824 336.236 40.08C335.297 40.4213 334.828 41.104 334.828 42.128C334.828 42.8107 335.084 43.408 335.596 43.92C336.108 44.432 336.705 44.688 337.388 44.688H384.236V51.344C376.812 49.3813 369.217 47.9307 361.452 46.992C353.772 46.0533 346.049 45.584 338.284 45.584H337.644V86.544H351.596ZM410.533 90C411.557 88.8053 412.325 87.3547 412.837 85.648C413.349 83.9413 413.605 82.4053 413.605 81.04V11.92L412.837 12.048C411.728 12.1333 410.277 12.3467 408.485 12.688C406.693 13.0293 404.816 13.456 402.853 13.968C400.976 14.48 399.141 15.1627 397.349 16.016C395.557 16.784 394.149 17.7653 393.125 18.96V11.152H448.805L449.061 17.424C447.952 16.2293 446.458 15.2907 444.581 14.608C442.704 13.84 440.741 13.2427 438.693 12.816C436.645 12.3893 434.682 12.0907 432.805 11.92C430.928 11.7493 429.392 11.6213 428.197 11.536H427.429L427.173 80.656C427.173 82.2773 427.386 83.9413 427.813 85.648C428.325 87.3547 429.178 88.8053 430.373 90H410.533ZM452.079 72.08C450.116 68.8373 448.58 65.3813 447.471 61.712C446.362 58.0427 445.807 54.288 445.807 50.448C445.807 44.048 447.172 38.3307 449.903 33.296C452.719 28.2613 456.346 23.9947 460.783 20.496C465.306 16.912 470.426 14.1813 476.143 12.304C481.86 10.4267 487.663 9.488 493.551 9.488C497.988 9.488 502.298 9.95733 506.479 10.896C510.746 11.8347 514.714 13.2853 518.383 15.248C522.138 17.1253 525.508 19.5573 528.495 22.544C531.567 25.5307 534.127 29.072 536.175 33.168C537.626 35.984 538.735 38.9707 539.503 42.128C540.271 45.2853 540.655 48.4853 540.655 51.728C540.655 58.384 539.332 64.272 536.687 69.392C534.042 74.4267 530.543 78.6933 526.191 82.192C521.839 85.6053 516.804 88.208 511.087 90C505.37 91.7067 499.439 92.56 493.295 92.56C489.37 92.56 485.402 92.1333 481.391 91.28C477.38 90.512 473.54 89.3173 469.871 87.696C466.287 85.9893 462.959 83.856 459.887 81.296C456.815 78.736 454.212 75.664 452.079 72.08ZM496.495 91.792C498.97 91.792 501.274 91.4507 503.407 90.768C505.626 90.1707 507.759 89.2747 509.807 88.08C515.61 84.9227 519.791 80.7413 522.351 75.536C524.996 70.2453 526.319 64.4 526.319 58C526.319 53.2213 525.466 48.0587 523.759 42.512C522.138 36.9653 519.748 31.8027 516.591 27.024C513.519 22.2453 509.722 18.2773 505.199 15.12C500.762 11.9627 495.77 10.384 490.223 10.384C487.919 10.384 485.658 10.7253 483.439 11.408C481.22 12.0053 479.087 12.816 477.039 13.84C471.236 16.8267 467.012 21.0507 464.367 26.512C461.722 31.9733 460.399 37.8613 460.399 44.176C460.399 49.04 461.21 54.2453 462.831 59.792C464.538 65.3387 466.927 70.5013 469.999 75.28C473.156 79.9733 476.954 83.8987 481.391 87.056C485.828 90.2133 490.863 91.792 496.495 91.792Z" fill="#1A1A19"/>
</g>
<g filter="url(#filter1_d_36_2389)">
<path d="M171.5 236.8L167 241.3C163 245.9 161 251 161 256.6C161 260.2 161.7 263.8 163.1 267.4C164.7 271 166.8 274.3 169.4 277.3C172 280.1 175 282.4 178.4 284.2C182 285.8 185.8 286.6 189.8 286.6C195.6 286.6 200.4 285 204.2 281.8C208.2 278.6 211.3 274.6 213.5 269.8C215.9 265 217.6 259.8 218.6 254.2C219.6 248.4 220.1 243 220.1 238V128.8C220.1 127.8 219.8 126.5 219.2 124.9C218.8 123.3 218.2 121.8 217.4 120.4C216.8 118.8 216 117.4 215 116.2C214.2 115 213.3 114.1 212.3 113.5L204.8 108.7H277.4L268.7 113.5C266.5 114.5 264.5 116.5 262.7 119.5C261.1 122.5 260.3 125.1 260.3 127.3C260.3 136.3 260.3 145.4 260.3 154.6L260.6 208.6C260.6 217.6 260.6 226.7 260.6 235.9C260.6 245.3 259 253.7 255.8 261.1C252.6 268.5 248.1 274.8 242.3 280C236.5 285 229.6 288.8 221.6 291.4C213.8 294 205.1 295.3 195.5 295.3C188.5 295.3 180.8 294.4 172.4 292.6C164.2 290.6 156.5 287.6 149.3 283.6C142.3 279.4 136.4 274.2 131.6 268C127 261.8 124.7 254.5 124.7 246.1C124.7 244.5 124.8 243.3 125 242.5V240.4L171.5 236.8ZM294.059 290.5C296.859 288.9 298.859 286.1 300.059 282.1C301.459 277.9 302.159 274.1 302.159 270.7V129.4C302.159 126.8 301.359 123.8 299.759 120.4C298.359 117 296.659 114.7 294.659 113.5L286.559 108.7H359.759L351.059 113.5C349.059 114.5 347.159 116.5 345.359 119.5C343.559 122.5 342.659 125.1 342.659 127.3L342.359 270.1C342.359 270.7 342.359 271.2 342.359 271.6C342.359 275.2 342.959 278.8 344.159 282.4C345.359 285.8 347.559 288.5 350.759 290.5L358.259 295H286.859L294.059 290.5ZM415.341 300.7L417.741 299.8C424.741 298 431.141 295.8 436.941 293.2C425.741 289.4 415.641 284.3 406.641 277.9C397.641 271.3 390.041 262.9 383.841 252.7C379.241 244.9 375.541 236.8 372.741 228.4C370.141 219.8 368.841 210.9 368.841 201.7C368.841 186.9 372.041 173.6 378.441 161.8C384.841 150 393.341 139.9 403.941 131.5C414.741 123.1 426.941 116.7 440.541 112.3C454.141 107.7 468.141 105.4 482.541 105.4C493.541 105.4 504.141 106.6 514.341 109C524.741 111.2 534.341 114.7 543.141 119.5C552.141 124.3 560.241 130.3 567.441 137.5C574.641 144.7 580.641 153.2 585.441 163C588.841 169.4 591.341 176.2 592.941 183.4C594.541 190.4 595.341 197.5 595.341 204.7C595.341 219.9 592.241 233.5 586.041 245.5C580.041 257.5 571.841 267.6 561.441 275.8C551.041 283.8 539.041 290 525.441 294.4C511.841 298.6 497.541 300.7 482.541 300.7C477.541 300.7 472.541 300.4 467.541 299.8C462.541 299.4 457.641 298.7 452.841 297.7C452.441 298.1 452.041 298.3 451.641 298.3L450.741 298.6C450.141 298.8 449.641 299 449.241 299.2C450.041 299.4 450.841 299.5 451.641 299.5L456.441 299.8C457.241 300 458.041 300.1 458.841 300.1L472.941 302.5C477.541 303.5 482.141 304.3 486.741 304.9C491.341 305.5 495.941 305.8 500.541 305.8C509.741 305.8 518.241 304.4 526.041 301.6C533.841 299 541.341 295.1 548.541 289.9L550.641 288.4L567.141 305.8L565.041 307.6C558.241 313 550.841 317.5 542.841 321.1C535.041 324.9 526.441 326.8 517.041 326.8C509.641 326.8 502.641 325.7 496.041 323.5C489.441 321.5 482.941 319.2 476.541 316.6C473.541 315.4 470.541 314.2 467.541 313C464.541 312 461.441 311 458.241 310C455.241 309 452.241 308.2 449.241 307.6C446.241 307.2 443.141 307 439.941 307C433.941 307 427.841 308.3 421.641 310.9L418.641 312.1L415.341 300.7ZM460.041 282.4C467.041 279 473.941 275.6 480.741 272.2C487.741 268.8 494.741 265.7 501.741 262.9C508.941 260.1 516.241 257.8 523.641 256C531.041 254 538.941 252.8 547.341 252.4C549.541 247.2 551.141 241.8 552.141 236.2C553.341 230.6 553.941 224.9 553.941 219.1C553.941 210.5 552.841 201.6 550.641 192.4C548.641 184 545.341 175.3 540.741 166.3C536.341 157.1 530.941 148.8 524.541 141.4C518.141 133.8 510.741 127.6 502.341 122.8C494.141 118 485.041 115.6 475.041 115.6C470.041 115.6 465.141 116.3 460.341 117.7C455.541 118.9 450.941 120.6 446.541 122.8C440.341 126 434.941 130 430.341 134.8C425.741 139.4 421.941 144.5 418.941 150.1C416.141 155.7 414.041 161.7 412.641 168.1C411.241 174.5 410.541 181 410.541 187.6C410.541 196.2 411.641 205.1 413.841 214.3C416.041 223.5 419.241 232.4 423.441 241C427.841 249.6 433.041 257.5 439.041 264.7C445.241 271.9 452.241 277.8 460.041 282.4ZM474.441 288.7C479.841 290.3 485.141 291.1 490.341 291.1C499.941 291.1 509.141 288.6 517.941 283.6C526.741 278.6 534.041 272.4 539.841 265C528.641 266.4 517.741 269.3 507.141 273.7C501.741 275.9 496.341 278.3 490.941 280.9C485.541 283.3 480.041 285.9 474.441 288.7ZM660.509 109.9L656.609 114.1C654.609 116.3 653.109 119 652.109 122.2C651.109 125.2 650.609 128.1 650.609 130.9V212.2C650.609 218.6 651.209 225.1 652.409 231.7C653.609 238.3 655.509 244.6 658.109 250.6C660.909 256.4 664.409 261.8 668.609 266.8C673.009 271.6 678.209 275.7 684.209 279.1C691.809 283.3 699.909 285.4 708.509 285.4C717.109 285.4 724.909 283.4 731.909 279.4C737.909 276 742.909 271.8 746.909 266.8C751.109 261.8 754.409 256.3 756.809 250.3C759.409 244.3 761.209 238.1 762.209 231.7C763.409 225.1 764.009 218.6 764.009 212.2V131.8C764.009 128.4 763.609 125.2 762.809 122.2C762.209 119.2 760.809 116.5 758.609 114.1L754.409 109.9H808.109L804.209 114.1C802.009 116.5 800.709 119.2 800.309 122.2C799.909 125 799.709 128.1 799.709 131.5V212.2C799.709 242 791.909 263.4 776.309 276.4C760.909 289.2 738.009 295.6 707.609 295.6C692.209 295.6 678.709 294.1 667.109 291.1C655.509 288.1 645.809 283.3 638.009 276.7C630.209 270.1 624.309 261.5 620.309 250.9C616.509 240.3 614.609 227.4 614.609 212.2V130C614.609 126.8 614.209 123.9 613.409 121.3C612.809 118.7 611.409 116.3 609.209 114.1L604.709 109.9H660.509ZM826.97 290.5C829.77 288.9 831.77 286.1 832.97 282.1C834.37 277.9 835.07 274.1 835.07 270.7V129.4C835.07 126.8 834.27 123.8 832.67 120.4C831.27 117 829.57 114.7 827.57 113.5L819.47 108.7H892.67L883.97 113.5C881.97 114.5 880.07 116.5 878.27 119.5C876.47 122.5 875.57 125.1 875.57 127.3L875.27 270.1C875.27 270.7 875.27 271.2 875.27 271.6C875.27 275.2 875.87 278.8 877.07 282.4C878.27 285.8 880.47 288.5 883.67 290.5L891.17 295H819.77L826.97 290.5ZM911.652 289.9C914.252 288.5 916.152 285.8 917.352 281.8C918.752 277.8 919.452 274.1 919.452 270.7V128.8C919.452 126.4 918.652 123.5 917.052 120.1C915.652 116.7 913.952 114.4 911.952 113.2L903.852 108.4H975.852L972.552 110.5C977.352 108.7 982.252 107.4 987.252 106.6C992.252 105.8 997.352 105.4 1002.55 105.4C1012.95 105.4 1022.85 107 1032.25 110.2C1041.65 113.2 1049.85 117.6 1056.85 123.4C1064.05 129 1069.75 136 1073.95 144.4C1078.15 152.6 1080.25 162 1080.25 172.6C1080.25 183 1078.05 192.2 1073.65 200.2C1069.45 208.2 1063.75 214.9 1056.55 220.3C1049.35 225.7 1041.05 229.8 1031.65 232.6C1022.45 235.4 1012.75 236.8 1002.55 236.8C1001.15 236.8 999.752 236.8 998.352 236.8C996.952 236.6 995.552 236.4 994.152 236.2C1002.15 241.4 1010.15 246.5 1018.15 251.5C1026.15 256.3 1034.15 261.2 1042.15 266.2C1045.15 268 1048.05 269.9 1050.85 271.9C1053.85 273.7 1056.75 275.6 1059.55 277.6C1062.35 279.6 1065.15 281.7 1067.95 283.9C1070.75 285.9 1073.45 288.1 1076.05 290.5L1080.55 294.7H1012.45L1017.25 290.2C1018.65 289 1019.35 287 1019.35 284.2C1019.35 281.4 1018.35 278.7 1016.35 276.1C1015.55 275.1 1014.65 274.3 1013.65 273.7C1012.85 272.9 1011.95 272 1010.95 271C1010.55 270.4 1010.05 269.9 1009.45 269.5L1006.45 267.1C1006.05 266.5 1005.55 266 1004.95 265.6C995.152 256.6 984.952 247.6 974.352 238.6C973.952 238 973.452 237.5 972.852 237.1L969.252 234.1C968.852 233.5 968.352 233 967.752 232.6L960.852 226.9C960.852 226.9 960.452 226.7 959.652 226.3V270.1C959.652 270.7 959.652 271.2 959.652 271.6C959.652 275.2 960.252 278.8 961.452 282.4C962.652 285.8 964.952 288.3 968.352 289.9L977.052 294.7H902.952L911.652 289.9ZM963.852 187.6C965.652 192.4 967.952 197.2 970.752 202C973.752 206.8 977.152 211.2 980.952 215.2C984.952 219 989.252 222.1 993.852 224.5C998.652 226.9 1003.85 228.1 1009.45 228.1C1016.25 228.1 1022.05 226.7 1026.85 223.9C1031.85 221.1 1035.95 217.5 1039.15 213.1C1042.35 208.5 1044.65 203.4 1046.05 197.8C1047.65 192 1048.45 186.2 1048.45 180.4C1048.45 173.4 1047.35 166 1045.15 158.2C1043.15 150.4 1040.05 143.2 1035.85 136.6C1031.85 129.8 1026.75 124.2 1020.55 119.8C1014.55 115.4 1007.45 113.2 999.252 113.2C996.852 113.2 994.452 113.5 992.052 114.1C989.652 114.5 987.252 115.1 984.852 115.9C979.252 117.9 974.552 120.8 970.752 124.6C967.152 128.2 964.252 132.6 962.052 137.8C961.852 138.2 961.652 138.7 961.452 139.3C961.452 139.7 961.252 140.2 960.852 140.8C960.852 141.2 960.652 141.8 960.252 142.6V143.2C960.052 148.4 959.952 153.7 959.952 159.1V175.6C960.152 175.8 960.252 176 960.252 176.2V176.5C960.452 176.7 960.552 176.9 960.552 177.1C960.952 178.7 961.252 180 961.452 181C961.852 182.4 962.252 183.8 962.652 185.2C963.052 186.4 963.452 187.2 963.852 187.6ZM1097.97 290.5C1100.77 288.9 1102.77 286.1 1103.97 282.1C1105.37 277.9 1106.07 274.1 1106.07 270.7V129.4C1106.07 126.8 1105.27 123.8 1103.67 120.4C1102.27 117 1100.57 114.7 1098.57 113.5L1090.47 108.7H1163.67L1154.97 113.5C1152.97 114.5 1151.07 116.5 1149.27 119.5C1147.47 122.5 1146.57 125.1 1146.57 127.3L1146.27 270.1C1146.27 270.7 1146.27 271.2 1146.27 271.6C1146.27 275.2 1146.87 278.8 1148.07 282.4C1149.27 285.8 1151.47 288.5 1154.67 290.5L1162.17 295H1090.77L1097.97 290.5Z" fill="#1A1A19"/>
</g>
<defs>
<filter id="filter0_d_36_2389" x="0.840088" y="9.48801" width="543.815" height="91.072" filterUnits="userSpaceOnUse" color-interpolation-filters="sRGB">
<feFlood flood-opacity="0" result="BackgroundImageFix"/>
<feColorMatrix in="SourceAlpha" type="matrix" values="0 0 0 0 0 0 0 0 0 0 0 0 0 0 0 0 0 0 127 0" result="hardAlpha"/>
<feOffset dy="4"/>
<feGaussianBlur stdDeviation="2"/>
<feComposite in2="hardAlpha" operator="out"/>
<feColorMatrix type="matrix" values="0 0 0 0 0 0 0 0 0 0 0 0 0 0 0 0 0 0 0.25 0"/>
<feBlend mode="normal" in2="BackgroundImageFix" result="effect1_dropShadow_36_2389"/>
<feBlend mode="normal" in="SourceGraphic" in2="effect1_dropShadow_36_2389" result="shape"/>
</filter>
<filter id="filter1_d_36_2389" x="120.7" y="105.4" width="1046.97" height="229.4" filterUnits="userSpaceOnUse" color-interpolation-filters="sRGB">
<feFlood flood-opacity="0" result="BackgroundImageFix"/>
<feColorMatrix in="SourceAlpha" type="matrix" values="0 0 0 0 0 0 0 0 0 0 0 0 0 0 0 0 0 0 127 0" result="hardAlpha"/>
<feOffset dy="4"/>
<feGaussianBlur stdDeviation="2"/>
<feComposite in2="hardAlpha" operator="out"/>
<feColorMatrix type="matrix" values="0 0 0 0 0 0 0 0 0 0 0 0 0 0 0 0 0 0 0.25 0"/>
<feBlend mode="normal" in2="BackgroundImageFix" result="effect1_dropShadow_36_2389"/>
<feBlend mode="normal" in="SourceGraphic" in2="effect1_dropShadow_36_2389" result="shape"/>
</filter>
</defs>
</svg>
