<svg width="1169" height="433" viewBox="0 0 1169 433" fill="none" xmlns="http://www.w3.org/2000/svg">
<g filter="url(#filter0_d_115_418)">
<path d="M4.84 167.872C5.864 166.677 6.58933 165.227 7.016 163.52C7.528 161.813 7.784 160.32 7.784 159.04V96.064C7.784 95.04 7.48533 93.8453 6.888 92.48C6.376 91.0293 5.69333 89.792 4.84 88.768H24.808C23.8693 89.7067 23.1013 90.816 22.504 92.096C21.992 93.376 21.736 94.4853 21.736 95.424C21.736 95.68 21.736 95.936 21.736 96.192L21.864 97.472L22.76 96.576C25.1493 94.1013 27.7947 92.1813 30.696 90.816C33.6827 89.3653 36.7973 88.384 40.04 87.872C37.5653 88.384 35.3893 89.3227 33.512 90.688C31.6347 92.0533 30.056 93.7173 28.776 95.68C27.496 97.5573 26.5147 99.6907 25.832 102.08C25.2347 104.384 24.936 106.816 24.936 109.376C24.936 112.533 25.448 116.032 26.472 119.872C27.5813 123.627 29.16 127.168 31.208 130.496C33.256 133.739 35.7733 136.469 38.76 138.688C41.7467 140.821 45.16 141.888 49 141.888C52.2427 141.888 55.016 141.248 57.32 139.968C59.7093 138.603 61.672 136.853 63.208 134.72C64.744 132.501 65.8533 130.027 66.536 127.296C67.304 124.565 67.688 121.792 67.688 118.976C67.688 115.819 67.2187 112.448 66.28 108.864C65.3413 105.28 63.9333 101.952 62.056 98.88C60.264 95.7227 57.96 93.0773 55.144 90.944C52.4133 88.8107 49.2133 87.6587 45.544 87.488H45.928C50.024 87.488 53.992 88.128 57.832 89.408C61.7573 90.6027 65.1707 92.3947 68.072 94.784C71.0587 97.1733 73.448 100.117 75.24 103.616C77.032 107.029 77.928 110.955 77.928 115.392C77.928 119.829 77.032 123.755 75.24 127.168C73.448 130.496 71.0587 133.269 68.072 135.488C65.0853 137.707 61.672 139.371 57.832 140.48C53.992 141.589 50.024 142.144 45.928 142.144C41.576 142.144 37.352 141.504 33.256 140.224C29.2453 138.944 25.704 136.811 22.632 133.824L21.608 132.8L21.352 158.656C21.352 160.192 21.5653 161.813 21.992 163.52C22.504 165.227 23.3573 166.677 24.552 167.872H4.84ZM83.215 167.872C84.3243 166.677 85.0923 165.227 85.519 163.52C85.9457 161.813 86.159 160.32 86.159 159.04V96.064C86.159 95.04 85.903 93.8453 85.391 92.48C84.879 91.0293 84.1963 89.792 83.343 88.768H103.183C102.5 89.6213 101.86 90.6027 101.263 91.712L100.495 93.632L102.287 92.48C106.127 89.92 110.436 88.384 115.215 87.872C114.191 87.9573 113.167 88.2133 112.143 88.64C106.852 90.6027 103.183 94.144 101.135 99.264C101.135 99.3493 100.964 99.8187 100.623 100.672C100.538 100.843 100.495 101.013 100.495 101.184C100.495 101.269 100.452 101.397 100.367 101.568V101.824C100.282 101.909 100.239 101.952 100.239 101.952V102.336C100.154 104.725 100.111 107.115 100.111 109.504C100.111 111.808 100.111 114.155 100.111 116.544C100.111 116.885 100.196 117.312 100.367 117.824C100.452 118.165 100.538 118.464 100.623 118.72L101.135 120.768C101.22 121.024 101.306 121.28 101.391 121.536C101.562 122.133 101.732 122.56 101.903 122.816C102.756 125.035 103.823 127.296 105.103 129.6C106.468 131.819 108.047 133.867 109.839 135.744C111.716 137.536 113.807 139.029 116.111 140.224C118.415 141.333 120.89 141.888 123.535 141.888C126.778 141.888 129.551 141.248 131.855 139.968C134.244 138.603 136.207 136.853 137.743 134.72C139.279 132.501 140.388 130.027 141.071 127.296C141.839 124.565 142.223 121.792 142.223 118.976C142.223 115.819 141.754 112.448 140.815 108.864C139.876 105.28 138.468 101.952 136.591 98.88C134.799 95.808 132.495 93.2053 129.679 91.072C126.948 88.9387 123.748 87.744 120.079 87.488H120.463C124.644 87.488 128.655 88.128 132.495 89.408C136.335 90.6027 139.706 92.3947 142.607 94.784C145.594 97.1733 147.983 100.117 149.775 103.616C151.567 107.029 152.463 110.955 152.463 115.392C152.463 119.829 151.567 123.755 149.775 127.168C147.983 130.496 145.594 133.269 142.607 135.488C139.62 137.707 136.207 139.371 132.367 140.48C128.527 141.589 124.559 142.144 120.463 142.144C117.818 142.144 115.13 141.888 112.399 141.376L109.455 140.736L111.887 142.528C115.983 145.344 120.079 148.032 124.175 150.592C128.356 153.152 132.538 155.797 136.719 158.528C137.914 159.296 139.151 160.107 140.431 160.96C141.711 161.728 142.948 162.539 144.143 163.392C145.167 164.075 146.148 164.8 147.087 165.568C148.026 166.336 148.964 167.104 149.903 167.872H128.911C129.167 167.445 129.338 166.976 129.423 166.464C129.508 165.867 129.551 165.355 129.551 164.928C129.551 163.221 128.996 161.685 127.887 160.32C127.119 159.467 126.308 158.656 125.455 157.888C125.028 157.461 124.602 157.077 124.175 156.736C123.834 156.395 123.45 156.053 123.023 155.712C120.719 153.579 118.415 151.488 116.111 149.44C113.807 147.392 111.503 145.344 109.199 143.296C108.772 142.869 108.346 142.443 107.919 142.016C107.663 141.76 107.407 141.547 107.151 141.376L104.207 138.816C103.951 138.56 103.695 138.347 103.439 138.176C103.012 137.92 102.586 137.707 102.159 137.536C102.074 137.365 101.946 137.28 101.775 137.28L101.391 137.152C101.306 137.067 101.178 136.981 101.007 136.896L99.983 136.384L99.855 158.656C99.855 160.192 100.068 161.813 100.495 163.52C101.007 165.227 101.86 166.677 103.055 167.872H83.215ZM163.079 150.08C161.116 146.837 159.58 143.381 158.471 139.712C157.362 136.043 156.807 132.288 156.807 128.448C156.807 122.048 158.172 116.331 160.903 111.296C163.719 106.261 167.346 101.995 171.783 98.496C176.306 94.912 181.426 92.1813 187.143 90.304C192.86 88.4267 198.663 87.488 204.551 87.488C208.988 87.488 213.298 87.9573 217.479 88.896C221.746 89.8347 225.714 91.2853 229.383 93.248C233.138 95.1253 236.508 97.5573 239.495 100.544C242.567 103.531 245.127 107.072 247.175 111.168C248.626 113.984 249.735 116.971 250.503 120.128C251.271 123.285 251.655 126.485 251.655 129.728C251.655 136.384 250.332 142.272 247.687 147.392C245.042 152.427 241.543 156.693 237.191 160.192C232.839 163.605 227.804 166.208 222.087 168C216.37 169.707 210.439 170.56 204.295 170.56C200.37 170.56 196.402 170.133 192.391 169.28C188.38 168.512 184.54 167.317 180.871 165.696C177.287 163.989 173.959 161.856 170.887 159.296C167.815 156.736 165.212 153.664 163.079 150.08ZM207.495 169.792C209.97 169.792 212.274 169.451 214.407 168.768C216.626 168.171 218.759 167.275 220.807 166.08C226.61 162.923 230.791 158.741 233.351 153.536C235.996 148.245 237.319 142.4 237.319 136C237.319 131.221 236.466 126.059 234.759 120.512C233.138 114.965 230.748 109.803 227.591 105.024C224.519 100.245 220.722 96.2773 216.199 93.12C211.762 89.9627 206.77 88.384 201.223 88.384C198.919 88.384 196.658 88.7253 194.439 89.408C192.22 90.0053 190.087 90.816 188.039 91.84C182.236 94.8267 178.012 99.0507 175.367 104.512C172.722 109.973 171.399 115.861 171.399 122.176C171.399 127.04 172.21 132.245 173.831 137.792C175.538 143.339 177.927 148.501 180.999 153.28C184.156 157.973 187.954 161.899 192.391 165.056C196.828 168.213 201.863 169.792 207.495 169.792ZM268.348 145.984C266.897 148.117 266.172 150.379 266.172 152.768C266.172 154.645 266.556 156.48 267.324 158.272C268.092 160.064 269.116 161.685 270.396 163.136C271.676 164.501 273.169 165.611 274.876 166.464C276.668 167.317 278.545 167.744 280.508 167.744C283.495 167.744 285.969 166.976 287.932 165.44C289.895 163.819 291.431 161.813 292.54 159.424C293.649 157.035 294.417 154.517 294.844 151.872C295.271 149.141 295.484 146.667 295.484 144.448V96.064C295.484 95.1253 295.185 93.9733 294.588 92.608C294.076 91.1573 293.393 89.92 292.54 88.896H312.38C311.527 89.8347 310.801 90.8587 310.204 91.968C309.692 93.0773 309.436 94.1013 309.436 95.04C309.436 95.1253 309.436 95.2533 309.436 95.424C309.436 103.531 309.436 111.595 309.436 119.616C309.521 127.552 309.564 135.531 309.564 143.552C309.564 147.563 308.881 151.104 307.516 154.176C306.151 157.248 304.273 159.808 301.884 161.856C299.58 163.904 296.807 165.483 293.564 166.592C290.321 167.616 286.78 168.128 282.94 168.128C280.039 168.128 276.881 167.744 273.468 166.976C270.14 166.123 267.025 164.885 264.124 163.264C261.223 161.557 258.791 159.467 256.828 156.992C254.951 154.517 254.012 151.573 254.012 148.16V147.136L268.348 145.984ZM351.596 164.544C358.252 164.544 364.951 164.373 371.692 164.032C378.433 163.605 385.089 162.539 391.66 160.832V167.872H319.468C320.492 166.677 321.217 165.227 321.644 163.52C322.156 161.813 322.412 160.32 322.412 159.04V95.808C322.412 92.992 321.473 90.7733 319.596 89.152H391.66V96.064C385.089 94.3573 378.433 93.3333 371.692 92.992C364.951 92.6507 358.252 92.48 351.596 92.48H337.644V117.696C337.132 117.696 336.663 117.824 336.236 118.08C335.297 118.421 334.828 119.104 334.828 120.128C334.828 120.811 335.084 121.408 335.596 121.92C336.108 122.432 336.705 122.688 337.388 122.688H384.236V129.344C376.812 127.381 369.217 125.931 361.452 124.992C353.772 124.053 346.049 123.584 338.284 123.584H337.644V164.544H351.596ZM410.533 168C411.557 166.805 412.325 165.355 412.837 163.648C413.349 161.941 413.605 160.405 413.605 159.04V89.92L412.837 90.048C411.728 90.1333 410.277 90.3467 408.485 90.688C406.693 91.0293 404.816 91.456 402.853 91.968C400.976 92.48 399.141 93.1627 397.349 94.016C395.557 94.784 394.149 95.7653 393.125 96.96V89.152H448.805L449.061 95.424C447.952 94.2293 446.458 93.2907 444.581 92.608C442.704 91.84 440.741 91.2427 438.693 90.816C436.645 90.3893 434.682 90.0907 432.805 89.92C430.928 89.7493 429.392 89.6213 428.197 89.536H427.429L427.173 158.656C427.173 160.277 427.386 161.941 427.813 163.648C428.325 165.355 429.178 166.805 430.373 168H410.533ZM452.079 150.08C450.116 146.837 448.58 143.381 447.471 139.712C446.362 136.043 445.807 132.288 445.807 128.448C445.807 122.048 447.172 116.331 449.903 111.296C452.719 106.261 456.346 101.995 460.783 98.496C465.306 94.912 470.426 92.1813 476.143 90.304C481.86 88.4267 487.663 87.488 493.551 87.488C497.988 87.488 502.298 87.9573 506.479 88.896C510.746 89.8347 514.714 91.2853 518.383 93.248C522.138 95.1253 525.508 97.5573 528.495 100.544C531.567 103.531 534.127 107.072 536.175 111.168C537.626 113.984 538.735 116.971 539.503 120.128C540.271 123.285 540.655 126.485 540.655 129.728C540.655 136.384 539.332 142.272 536.687 147.392C534.042 152.427 530.543 156.693 526.191 160.192C521.839 163.605 516.804 166.208 511.087 168C505.37 169.707 499.439 170.56 493.295 170.56C489.37 170.56 485.402 170.133 481.391 169.28C477.38 168.512 473.54 167.317 469.871 165.696C466.287 163.989 462.959 161.856 459.887 159.296C456.815 156.736 454.212 153.664 452.079 150.08ZM496.495 169.792C498.97 169.792 501.274 169.451 503.407 168.768C505.626 168.171 507.759 167.275 509.807 166.08C515.61 162.923 519.791 158.741 522.351 153.536C524.996 148.245 526.319 142.4 526.319 136C526.319 131.221 525.466 126.059 523.759 120.512C522.138 114.965 519.748 109.803 516.591 105.024C513.519 100.245 509.722 96.2773 505.199 93.12C500.762 89.9627 495.77 88.384 490.223 88.384C487.919 88.384 485.658 88.7253 483.439 89.408C481.22 90.0053 479.087 90.816 477.039 91.84C471.236 94.8267 467.012 99.0507 464.367 104.512C461.722 109.973 460.399 115.861 460.399 122.176C460.399 127.04 461.21 132.245 462.831 137.792C464.538 143.339 466.927 148.501 469.999 153.28C473.156 157.973 476.954 161.899 481.391 165.056C485.828 168.213 490.863 169.792 496.495 169.792Z" fill="#1A1A19"/>
</g>
<g filter="url(#filter1_d_115_418)">
<path d="M171.5 314.8L167 319.3C163 323.9 161 329 161 334.6C161 338.2 161.7 341.8 163.1 345.4C164.7 349 166.8 352.3 169.4 355.3C172 358.1 175 360.4 178.4 362.2C182 363.8 185.8 364.6 189.8 364.6C195.6 364.6 200.4 363 204.2 359.8C208.2 356.6 211.3 352.6 213.5 347.8C215.9 343 217.6 337.8 218.6 332.2C219.6 326.4 220.1 321 220.1 316V206.8C220.1 205.8 219.8 204.5 219.2 202.9C218.8 201.3 218.2 199.8 217.4 198.4C216.8 196.8 216 195.4 215 194.2C214.2 193 213.3 192.1 212.3 191.5L204.8 186.7H277.4L268.7 191.5C266.5 192.5 264.5 194.5 262.7 197.5C261.1 200.5 260.3 203.1 260.3 205.3C260.3 214.3 260.3 223.4 260.3 232.6L260.6 286.6C260.6 295.6 260.6 304.7 260.6 313.9C260.6 323.3 259 331.7 255.8 339.1C252.6 346.5 248.1 352.8 242.3 358C236.5 363 229.6 366.8 221.6 369.4C213.8 372 205.1 373.3 195.5 373.3C188.5 373.3 180.8 372.4 172.4 370.6C164.2 368.6 156.5 365.6 149.3 361.6C142.3 357.4 136.4 352.2 131.6 346C127 339.8 124.7 332.5 124.7 324.1C124.7 322.5 124.8 321.3 125 320.5V318.4L171.5 314.8ZM294.059 368.5C296.859 366.9 298.859 364.1 300.059 360.1C301.459 355.9 302.159 352.1 302.159 348.7V207.4C302.159 204.8 301.359 201.8 299.759 198.4C298.359 195 296.659 192.7 294.659 191.5L286.559 186.7H359.759L351.059 191.5C349.059 192.5 347.159 194.5 345.359 197.5C343.559 200.5 342.659 203.1 342.659 205.3L342.359 348.1C342.359 348.7 342.359 349.2 342.359 349.6C342.359 353.2 342.959 356.8 344.159 360.4C345.359 363.8 347.559 366.5 350.759 368.5L358.259 373H286.859L294.059 368.5ZM415.341 378.7L417.741 377.8C424.741 376 431.141 373.8 436.941 371.2C425.741 367.4 415.641 362.3 406.641 355.9C397.641 349.3 390.041 340.9 383.841 330.7C379.241 322.9 375.541 314.8 372.741 306.4C370.141 297.8 368.841 288.9 368.841 279.7C368.841 264.9 372.041 251.6 378.441 239.8C384.841 228 393.341 217.9 403.941 209.5C414.741 201.1 426.941 194.7 440.541 190.3C454.141 185.7 468.141 183.4 482.541 183.4C493.541 183.4 504.141 184.6 514.341 187C524.741 189.2 534.341 192.7 543.141 197.5C552.141 202.3 560.241 208.3 567.441 215.5C574.641 222.7 580.641 231.2 585.441 241C588.841 247.4 591.341 254.2 592.941 261.4C594.541 268.4 595.341 275.5 595.341 282.7C595.341 297.9 592.241 311.5 586.041 323.5C580.041 335.5 571.841 345.6 561.441 353.8C551.041 361.8 539.041 368 525.441 372.4C511.841 376.6 497.541 378.7 482.541 378.7C477.541 378.7 472.541 378.4 467.541 377.8C462.541 377.4 457.641 376.7 452.841 375.7C452.441 376.1 452.041 376.3 451.641 376.3L450.741 376.6C450.141 376.8 449.641 377 449.241 377.2C450.041 377.4 450.841 377.5 451.641 377.5L456.441 377.8C457.241 378 458.041 378.1 458.841 378.1L472.941 380.5C477.541 381.5 482.141 382.3 486.741 382.9C491.341 383.5 495.941 383.8 500.541 383.8C509.741 383.8 518.241 382.4 526.041 379.6C533.841 377 541.341 373.1 548.541 367.9L550.641 366.4L567.141 383.8L565.041 385.6C558.241 391 550.841 395.5 542.841 399.1C535.041 402.9 526.441 404.8 517.041 404.8C509.641 404.8 502.641 403.7 496.041 401.5C489.441 399.5 482.941 397.2 476.541 394.6C473.541 393.4 470.541 392.2 467.541 391C464.541 390 461.441 389 458.241 388C455.241 387 452.241 386.2 449.241 385.6C446.241 385.2 443.141 385 439.941 385C433.941 385 427.841 386.3 421.641 388.9L418.641 390.1L415.341 378.7ZM460.041 360.4C467.041 357 473.941 353.6 480.741 350.2C487.741 346.8 494.741 343.7 501.741 340.9C508.941 338.1 516.241 335.8 523.641 334C531.041 332 538.941 330.8 547.341 330.4C549.541 325.2 551.141 319.8 552.141 314.2C553.341 308.6 553.941 302.9 553.941 297.1C553.941 288.5 552.841 279.6 550.641 270.4C548.641 262 545.341 253.3 540.741 244.3C536.341 235.1 530.941 226.8 524.541 219.4C518.141 211.8 510.741 205.6 502.341 200.8C494.141 196 485.041 193.6 475.041 193.6C470.041 193.6 465.141 194.3 460.341 195.7C455.541 196.9 450.941 198.6 446.541 200.8C440.341 204 434.941 208 430.341 212.8C425.741 217.4 421.941 222.5 418.941 228.1C416.141 233.7 414.041 239.7 412.641 246.1C411.241 252.5 410.541 259 410.541 265.6C410.541 274.2 411.641 283.1 413.841 292.3C416.041 301.5 419.241 310.4 423.441 319C427.841 327.6 433.041 335.5 439.041 342.7C445.241 349.9 452.241 355.8 460.041 360.4ZM474.441 366.7C479.841 368.3 485.141 369.1 490.341 369.1C499.941 369.1 509.141 366.6 517.941 361.6C526.741 356.6 534.041 350.4 539.841 343C528.641 344.4 517.741 347.3 507.141 351.7C501.741 353.9 496.341 356.3 490.941 358.9C485.541 361.3 480.041 363.9 474.441 366.7ZM660.509 187.9L656.609 192.1C654.609 194.3 653.109 197 652.109 200.2C651.109 203.2 650.609 206.1 650.609 208.9V290.2C650.609 296.6 651.209 303.1 652.409 309.7C653.609 316.3 655.509 322.6 658.109 328.6C660.909 334.4 664.409 339.8 668.609 344.8C673.009 349.6 678.209 353.7 684.209 357.1C691.809 361.3 699.909 363.4 708.509 363.4C717.109 363.4 724.909 361.4 731.909 357.4C737.909 354 742.909 349.8 746.909 344.8C751.109 339.8 754.409 334.3 756.809 328.3C759.409 322.3 761.209 316.1 762.209 309.7C763.409 303.1 764.009 296.6 764.009 290.2V209.8C764.009 206.4 763.609 203.2 762.809 200.2C762.209 197.2 760.809 194.5 758.609 192.1L754.409 187.9H808.109L804.209 192.1C802.009 194.5 800.709 197.2 800.309 200.2C799.909 203 799.709 206.1 799.709 209.5V290.2C799.709 320 791.909 341.4 776.309 354.4C760.909 367.2 738.009 373.6 707.609 373.6C692.209 373.6 678.709 372.1 667.109 369.1C655.509 366.1 645.809 361.3 638.009 354.7C630.209 348.1 624.309 339.5 620.309 328.9C616.509 318.3 614.609 305.4 614.609 290.2V208C614.609 204.8 614.209 201.9 613.409 199.3C612.809 196.7 611.409 194.3 609.209 192.1L604.709 187.9H660.509ZM826.97 368.5C829.77 366.9 831.77 364.1 832.97 360.1C834.37 355.9 835.07 352.1 835.07 348.7V207.4C835.07 204.8 834.27 201.8 832.67 198.4C831.27 195 829.57 192.7 827.57 191.5L819.47 186.7H892.67L883.97 191.5C881.97 192.5 880.07 194.5 878.27 197.5C876.47 200.5 875.57 203.1 875.57 205.3L875.27 348.1C875.27 348.7 875.27 349.2 875.27 349.6C875.27 353.2 875.87 356.8 877.07 360.4C878.27 363.8 880.47 366.5 883.67 368.5L891.17 373H819.77L826.97 368.5ZM911.652 367.9C914.252 366.5 916.152 363.8 917.352 359.8C918.752 355.8 919.452 352.1 919.452 348.7V206.8C919.452 204.4 918.652 201.5 917.052 198.1C915.652 194.7 913.952 192.4 911.952 191.2L903.852 186.4H975.852L972.552 188.5C977.352 186.7 982.252 185.4 987.252 184.6C992.252 183.8 997.352 183.4 1002.55 183.4C1012.95 183.4 1022.85 185 1032.25 188.2C1041.65 191.2 1049.85 195.6 1056.85 201.4C1064.05 207 1069.75 214 1073.95 222.4C1078.15 230.6 1080.25 240 1080.25 250.6C1080.25 261 1078.05 270.2 1073.65 278.2C1069.45 286.2 1063.75 292.9 1056.55 298.3C1049.35 303.7 1041.05 307.8 1031.65 310.6C1022.45 313.4 1012.75 314.8 1002.55 314.8C1001.15 314.8 999.752 314.8 998.352 314.8C996.952 314.6 995.552 314.4 994.152 314.2C1002.15 319.4 1010.15 324.5 1018.15 329.5C1026.15 334.3 1034.15 339.2 1042.15 344.2C1045.15 346 1048.05 347.9 1050.85 349.9C1053.85 351.7 1056.75 353.6 1059.55 355.6C1062.35 357.6 1065.15 359.7 1067.95 361.9C1070.75 363.9 1073.45 366.1 1076.05 368.5L1080.55 372.7H1012.45L1017.25 368.2C1018.65 367 1019.35 365 1019.35 362.2C1019.35 359.4 1018.35 356.7 1016.35 354.1C1015.55 353.1 1014.65 352.3 1013.65 351.7C1012.85 350.9 1011.95 350 1010.95 349C1010.55 348.4 1010.05 347.9 1009.45 347.5L1006.45 345.1C1006.05 344.5 1005.55 344 1004.95 343.6C995.152 334.6 984.952 325.6 974.352 316.6C973.952 316 973.452 315.5 972.852 315.1L969.252 312.1C968.852 311.5 968.352 311 967.752 310.6L960.852 304.9C960.852 304.9 960.452 304.7 959.652 304.3V348.1C959.652 348.7 959.652 349.2 959.652 349.6C959.652 353.2 960.252 356.8 961.452 360.4C962.652 363.8 964.952 366.3 968.352 367.9L977.052 372.7H902.952L911.652 367.9ZM963.852 265.6C965.652 270.4 967.952 275.2 970.752 280C973.752 284.8 977.152 289.2 980.952 293.2C984.952 297 989.252 300.1 993.852 302.5C998.652 304.9 1003.85 306.1 1009.45 306.1C1016.25 306.1 1022.05 304.7 1026.85 301.9C1031.85 299.1 1035.95 295.5 1039.15 291.1C1042.35 286.5 1044.65 281.4 1046.05 275.8C1047.65 270 1048.45 264.2 1048.45 258.4C1048.45 251.4 1047.35 244 1045.15 236.2C1043.15 228.4 1040.05 221.2 1035.85 214.6C1031.85 207.8 1026.75 202.2 1020.55 197.8C1014.55 193.4 1007.45 191.2 999.252 191.2C996.852 191.2 994.452 191.5 992.052 192.1C989.652 192.5 987.252 193.1 984.852 193.9C979.252 195.9 974.552 198.8 970.752 202.6C967.152 206.2 964.252 210.6 962.052 215.8C961.852 216.2 961.652 216.7 961.452 217.3C961.452 217.7 961.252 218.2 960.852 218.8C960.852 219.2 960.652 219.8 960.252 220.6V221.2C960.052 226.4 959.952 231.7 959.952 237.1V253.6C960.152 253.8 960.252 254 960.252 254.2V254.5C960.452 254.7 960.552 254.9 960.552 255.1C960.952 256.7 961.252 258 961.452 259C961.852 260.4 962.252 261.8 962.652 263.2C963.052 264.4 963.452 265.2 963.852 265.6ZM1097.97 368.5C1100.77 366.9 1102.77 364.1 1103.97 360.1C1105.37 355.9 1106.07 352.1 1106.07 348.7V207.4C1106.07 204.8 1105.27 201.8 1103.67 198.4C1102.27 195 1100.57 192.7 1098.57 191.5L1090.47 186.7H1163.67L1154.97 191.5C1152.97 192.5 1151.07 194.5 1149.27 197.5C1147.47 200.5 1146.57 203.1 1146.57 205.3L1146.27 348.1C1146.27 348.7 1146.27 349.2 1146.27 349.6C1146.27 353.2 1146.87 356.8 1148.07 360.4C1149.27 363.8 1151.47 366.5 1154.67 368.5L1162.17 373H1090.77L1097.97 368.5Z" fill="#1A1A19"/>
</g>
<g clip-path="url(#clip0_115_418)">
<mask id="mask0_115_418" style="mask-type:luminance" maskUnits="userSpaceOnUse" x="272" y="-49" width="139" height="139">
<path d="M411 -49H272V90H411V-49Z" fill="white"/>
</mask>
<g mask="url(#mask0_115_418)">
<path d="M341.117 80.0291C336.87 66.9879 343.768 61.5175 347.789 54.1938C358.973 33.8243 339.345 31.6821 325.269 28.0442C319.86 26.6463 305.088 19.8585 307.884 6.7749C306.871 19.6477 321.411 24.8037 326.844 26.0855C342.887 29.8707 363.256 32.4848 351.793 56.1836C348.28 63.448 342.358 68.575 346.115 79.2497C346.693 80.5885 342.651 82.8454 341.117 80.0291Z" fill="#66A244"/>
<path d="M343.585 71.3114C333.681 73.0308 329.51 71.8628 325.633 68.0451C322.69 65.1477 321.692 58.2039 322.938 51.894C327.484 55.0185 331.944 54.2077 336.872 57.6463C341.732 61.0363 341.905 62.5479 343.585 71.3114Z" fill="#5A913B"/>
<path d="M349.947 54.9109C358.845 58.1921 362.002 57.1033 364.73 54.916C367.864 52.4017 369.25 48.1666 369.168 41.7492C362.929 45.4045 359.338 43.5509 356.417 45.1847C351.434 47.9711 351.809 49.3428 349.947 54.9109Z" fill="#5A913B"/>
<path d="M333.246 28.628C328.758 24.0906 325.785 24.6729 322.729 26.3709C319.216 28.3227 317.486 30.8748 316.488 37.2147C322.388 34.2838 324.357 35.2108 327.319 35.044C331.347 34.8173 332.697 32.0831 333.246 28.628Z" fill="#5A913B"/>
<path d="M314.895 22.138C319.057 21.0588 317.995 16.7714 316.466 14.7119C315.773 13.7786 312.738 12.7547 310.665 12.5619C312.193 14.5823 311.805 16.7923 311.584 17.9179C311.158 20.0812 312.154 21.4334 314.895 22.138Z" fill="#5A913B"/>
<path d="M332.627 81.9107C327.484 80.4824 320.933 84.803 320.373 90H366.775C366.073 83.6727 359.876 80.6467 355.371 83.9595C351.643 72.625 337.765 73.3473 332.627 81.9107Z" fill="#423733"/>
</g>
</g>
<g clip-path="url(#clip1_115_418)">
<mask id="mask1_115_418" style="mask-type:luminance" maskUnits="userSpaceOnUse" x="783" y="42" width="145" height="145">
<path d="M928 42H783V187H928V42Z" fill="white"/>
</mask>
<g mask="url(#mask1_115_418)">
<path d="M859.85 140.237C859.857 137.107 858.2 134.208 855.5 132.625C852.799 134.208 851.142 137.107 851.15 140.238C851.142 143.368 852.799 146.267 855.5 147.85C858.2 146.267 859.857 143.368 859.85 140.237Z" fill="#2AFDBA"/>
<path d="M855.5 169.6C855.5 169.6 855.5 161.406 855.5 154.447C855.5 147.487 855.5 142.775 855.5 142.775" stroke="#032E29" stroke-width="2" stroke-linecap="round" stroke-linejoin="round"/>
<path d="M850.64 169.6H857.709C857.615 169.239 857.551 168.867 857.551 168.477C857.551 167.011 858.264 165.721 859.353 164.902C857.917 162.986 855.632 161.74 853.05 161.74C849.896 161.74 847.182 163.596 845.924 166.269C846.05 166.258 846.171 166.232 846.298 166.232C848.393 166.232 850.138 167.666 850.64 169.6Z" fill="#1FBD9C"/>
<path d="M864.301 166.231C864.961 166.231 865.583 166.381 866.147 166.635C865.441 165.076 863.877 163.985 862.051 163.985C861.035 163.985 860.107 164.335 859.354 164.902C860.028 165.802 860.519 166.846 860.758 167.984C861.581 166.925 862.854 166.231 864.301 166.231Z" fill="#1FBD9C"/>
<path d="M857.55 168.477C857.55 168.867 857.615 169.239 857.709 169.6H859.96C860.115 169.003 860.39 168.458 860.758 167.983C860.519 166.845 860.028 165.802 859.354 164.902C858.265 165.722 857.55 167.011 857.55 168.477Z" fill="#1FBD9C"/>
<path d="M844.599 169.6H845.175C845.175 168.407 845.448 167.281 845.924 166.268C844.421 166.394 843.138 167.247 842.42 168.483C843.313 168.502 844.097 168.937 844.599 169.6Z" fill="#1FBD9C"/>
<path d="M850.64 169.6C850.138 167.666 848.393 166.232 846.298 166.232C846.17 166.232 846.095 166.213 845.969 166.223C845.493 167.236 845.175 168.407 845.175 169.6H850.64Z" fill="#1FBD9C"/>
<path d="M866.392 169.6H867.126C867.427 169.203 867.825 168.883 868.293 168.69C867.83 167.785 867.078 167.055 866.146 166.635C866.401 167.198 866.551 167.819 866.551 168.477C866.551 168.867 866.486 169.239 866.392 169.6Z" fill="#1FBD9C"/>
<path d="M860.758 167.983C860.867 168.505 860.926 169.045 860.926 169.599H866.392C866.486 169.238 866.552 168.867 866.552 168.477C866.552 167.818 866.402 167.198 866.147 166.635C865.583 166.38 864.961 166.231 864.302 166.231C862.855 166.231 861.581 166.925 860.758 167.983Z" fill="#1FBD9C"/>
<path d="M860.758 167.983C860.39 168.457 860.115 169.003 859.96 169.6H860.926C860.926 169.046 860.867 168.505 860.758 167.983Z" fill="#1FBD9C"/>
<path d="M871.601 169.6C871.088 168.921 870.281 168.476 869.364 168.476C868.984 168.476 868.623 168.555 868.293 168.69C868.441 168.979 868.559 169.281 868.642 169.6H871.601Z" fill="#1FBD9C"/>
<path d="M867.126 169.6H868.643C868.56 169.281 868.441 168.978 868.292 168.689C867.825 168.882 867.427 169.203 867.126 169.6Z" fill="#1FBD9C"/>
<path d="M842.42 168.483C842.4 168.483 842.381 168.476 842.36 168.476C841.444 168.476 840.637 168.921 840.123 169.6H841.958C842.061 169.202 842.219 168.83 842.42 168.483Z" fill="#1FBD9C"/>
<path d="M844.599 169.599C844.097 168.936 843.313 168.502 842.42 168.483C842.219 168.83 842.061 169.201 841.958 169.599H844.599Z" fill="#1FBD9C"/>
<path d="M854.591 165.476L848.235 163.256L845.148 166.609C845.148 166.609 844.557 167.652 842.515 168.603C840.472 169.554 840.744 169.554 840.744 169.554H870.936L870.074 168.92L867.304 168.241L865.897 165.794L862.491 164.344L859.359 165.522L858.133 167.379L854.591 165.476Z" fill="#1FBD9C"/>
<path d="M822.875 169.6H888.125V175.4C888.125 181.807 882.932 187 876.525 187H834.475C828.068 187 822.875 181.807 822.875 175.4V169.6Z" fill="#064E45"/>
<path d="M822.875 169.6H855.5V187H834.475C828.068 187 822.875 181.807 822.875 175.4V169.6Z" fill="#032E29"/>
</g>
</g>
<defs>
<filter id="filter0_d_115_418" x="0.840088" y="87.488" width="543.815" height="91.072" filterUnits="userSpaceOnUse" color-interpolation-filters="sRGB">
<feFlood flood-opacity="0" result="BackgroundImageFix"/>
<feColorMatrix in="SourceAlpha" type="matrix" values="0 0 0 0 0 0 0 0 0 0 0 0 0 0 0 0 0 0 127 0" result="hardAlpha"/>
<feOffset dy="4"/>
<feGaussianBlur stdDeviation="2"/>
<feComposite in2="hardAlpha" operator="out"/>
<feColorMatrix type="matrix" values="0 0 0 0 0 0 0 0 0 0 0 0 0 0 0 0 0 0 0.25 0"/>
<feBlend mode="normal" in2="BackgroundImageFix" result="effect1_dropShadow_115_418"/>
<feBlend mode="normal" in="SourceGraphic" in2="effect1_dropShadow_115_418" result="shape"/>
</filter>
<filter id="filter1_d_115_418" x="120.7" y="183.4" width="1046.97" height="229.4" filterUnits="userSpaceOnUse" color-interpolation-filters="sRGB">
<feFlood flood-opacity="0" result="BackgroundImageFix"/>
<feColorMatrix in="SourceAlpha" type="matrix" values="0 0 0 0 0 0 0 0 0 0 0 0 0 0 0 0 0 0 127 0" result="hardAlpha"/>
<feOffset dy="4"/>
<feGaussianBlur stdDeviation="2"/>
<feComposite in2="hardAlpha" operator="out"/>
<feColorMatrix type="matrix" values="0 0 0 0 0 0 0 0 0 0 0 0 0 0 0 0 0 0 0.25 0"/>
<feBlend mode="normal" in2="BackgroundImageFix" result="effect1_dropShadow_115_418"/>
<feBlend mode="normal" in="SourceGraphic" in2="effect1_dropShadow_115_418" result="shape"/>
</filter>
<clipPath id="clip0_115_418">
<rect width="139" height="90" fill="white" transform="translate(272)"/>
</clipPath>
<clipPath id="clip1_115_418">
<rect width="145" height="145" fill="white" transform="translate(783 42)"/>
</clipPath>
</defs>
</svg>
